<svg width="30" height="30" fill="none" xmlns="http://www.w3.org/2000/svg"><g clip-path="url(#a)"><path d="M12.188.938v.937h-.938a.937.937 0 0 0-.938.938v.937h-.937c-1.036 0-1.875.84-1.875 1.875v22.5C7.5 29.16 8.34 30 9.375 30h11.25c1.035 0 1.875-.84 1.875-1.875v-22.5c0-1.036-.84-1.875-1.875-1.875h-.938v-.938a.937.937 0 0 0-.937-.937h-.938V.937A.937.937 0 0 0 16.875 0h-3.75a.937.937 0 0 0-.938.938Zm-.938 4.687h9.375V18.75H9.375V5.625h1.875Z" fill="#FF005C"/></g><defs><clipPath id="a"><path fill="#fff" transform="rotate(-90 15 15)" d="M0 0h30v30H0z"/></clipPath></defs></svg>