<svg width="30" height="30" fill="none" xmlns="http://www.w3.org/2000/svg"><g clip-path="url(#a)" fill="#FF005C"><path d="M26.997 25.732c4.423-5.102 3.88-12.795-1.11-17.26 2.563 8.981-4.215 17.954-13.553 17.954-.18 0 .905.006-3.368-.02a12.29 12.29 0 0 0 8.7 3.594l11.458-.059c.782-.003 1.17-.954.614-1.504l-2.741-2.705Z"/><path d="M12.334 24.668c6.8 0 12.333-5.533 12.333-12.334C24.667 5.533 19.134 0 12.334 0S0 5.533 0 12.334c0 2.994 1.06 5.826 3.002 8.066L.262 23.105c-.555.548-.17 1.5.613 1.504l11.459.059ZM7.09 7.968h10.546a.879.879 0 0 1 0 1.759H7.09a.879.879 0 0 1 0-1.758Zm0 3.516h10.546a.879.879 0 0 1 0 1.758H7.09a.879.879 0 0 1 0-1.758Zm-.879 4.395c0-.486.394-.879.879-.879h10.546a.879.879 0 0 1 0 1.758H7.09a.879.879 0 0 1-.879-.88Z"/></g><defs><clipPath id="a"><path fill="#fff" d="M0 0h30v30H0z"/></clipPath></defs></svg>