<svg width="30" height="30" fill="none" xmlns="http://www.w3.org/2000/svg"><path d="M25 10c-.69 0-1.25.56-1.25 1.25v5.625c0 4.4-3.267 8.04-7.5 8.65v-1.894c3.195-.59 5.625-3.392 5.625-6.756v-10A6.883 6.883 0 0 0 15 0a6.883 6.883 0 0 0-6.875 6.875v10c0 3.364 2.43 6.166 5.625 6.756v1.894c-4.233-.61-7.5-4.25-7.5-8.65V11.25a1.25 1.25 0 0 0-2.5 0v5.625c0 5.78 4.383 10.552 10 11.176v.699a1.25 1.25 0 0 0 2.5 0v-.699c5.617-.624 10-5.395 10-11.176V11.25c0-.69-.56-1.25-1.25-1.25ZM15 21.25c-2.2 0-4.02-1.633-4.325-3.75H12.5a1.25 1.25 0 0 0 0-2.5h-1.875v-1.875H12.5a1.25 1.25 0 0 0 0-2.5h-1.875V8.75H12.5a1.25 1.25 0 0 0 0-2.5h-1.825A4.378 4.378 0 0 1 15 2.5c2.2 0 4.02 1.633 4.325 3.75H17.5a1.25 1.25 0 0 0 0 2.5h1.875v1.875H17.5a1.25 1.25 0 0 0 0 2.5h1.875V15H17.5a1.25 1.25 0 0 0 0 2.5h1.825A4.378 4.378 0 0 1 15 21.25Z" fill="#FF005C"/></svg>