<svg width="30" height="30" fill="none" xmlns="http://www.w3.org/2000/svg"><path d="m29.306 18.945-3.165-2.483c.06-.48.105-.967.105-1.462s-.045-.982-.105-1.463l3.173-2.482a.748.748 0 0 0 .18-.96l-3-5.198a.742.742 0 0 0-.915-.322l-3.735 1.507a11.38 11.38 0 0 0-2.535-1.477L18.746.63a.771.771 0 0 0-.75-.63h-6a.757.757 0 0 0-.742.63l-.563 3.975a11.1 11.1 0 0 0-2.535 1.477L4.421 4.575a.75.75 0 0 0-.915.322l-3 5.198a.751.751 0 0 0 .18.96l3.165 2.482c-.06.48-.105.968-.105 1.463 0 .495.045.982.105 1.462L.686 18.945a.748.748 0 0 0-.18.96l3 5.197c.188.323.578.458.915.323l3.735-1.508c.773.593 1.62 1.095 2.535 1.478l.563 3.975c.06.352.367.63.742.63h6a.757.757 0 0 0 .743-.63l.562-3.975a11.098 11.098 0 0 0 2.535-1.477l3.735 1.507a.75.75 0 0 0 .915-.323l3-5.197a.751.751 0 0 0-.18-.96Zm-14.31 1.305A5.246 5.246 0 0 1 9.746 15a5.246 5.246 0 0 1 5.25-5.25 5.246 5.246 0 0 1 5.25 5.25 5.246 5.246 0 0 1-5.25 5.25Z" fill="#FF005C"/></svg>