<svg width="30" height="30" fill="none" xmlns="http://www.w3.org/2000/svg"><path d="M15.009 24.352a1.361 1.361 0 0 1-2.232 1.048L5.329 19.23H1.362C.61 19.229 0 18.619 0 17.867v-5.428c0-.753.61-1.363 1.362-1.363H5.33l7.448-6.172a1.362 1.362 0 0 1 2.232 1.05v18.398Zm5.236-2.13a1.36 1.36 0 0 1-1.061-.395L19 21.646a1.362 1.362 0 0 1-.131-1.775 7.862 7.862 0 0 0 1.558-4.717c0-1.84-.61-3.566-1.768-4.99-.44-.542-.4-1.33.094-1.823l.182-.182a1.364 1.364 0 0 1 2.018.101 10.774 10.774 0 0 1 2.453 6.894c0 2.372-.75 4.629-2.169 6.527-.237.316-.599.515-.993.543Zm5.632 4.211a1.364 1.364 0 0 1-2.005.084l-.178-.178c-.5-.5-.534-1.3-.08-1.84a14.543 14.543 0 0 0 3.408-9.346c0-3.55-1.296-6.968-3.648-9.624a1.363 1.363 0 0 1 .055-1.865l.178-.179c.265-.266.61-.413 1.005-.4.375.01.73.176.979.457A17.468 17.468 0 0 1 30 15.153c0 4.124-1.464 8.13-4.123 11.28Z" fill="#FF005C"/></svg>