<svg width="16" height="16" viewBox="0 0 16 16" fill="none" xmlns="http://www.w3.org/2000/svg">
<g clip-path="url(#clip0_1389_469)">
<path d="M8.12644 1C4.36004 1 1.30724 4.0544 1.30724 7.8192C1.30724 9.1072 1.66564 10.3136 2.28484 11.3424L1.05444 15L4.83044 13.7904C5.80804 14.3296 6.92964 14.64 8.12644 14.64C11.8928 14.64 14.9456 11.5856 14.9456 7.8208C14.9456 4.056 11.8928 1 8.12644 1ZM11.4672 10.1824C11.3296 10.5728 10.7808 10.8976 10.3424 10.9904C10.0432 11.0544 9.65124 11.1056 8.33284 10.56C6.64644 9.8624 5.56164 8.1488 5.47844 8.0384C5.39684 7.9264 4.79684 7.1312 4.79684 6.3088C4.79684 5.4864 5.21604 5.0848 5.38404 4.9136C5.52164 4.7712 5.75204 4.7088 5.96964 4.7088C6.04164 4.7088 6.10404 4.712 6.16164 4.7152C6.32964 4.7216 6.41444 4.7328 6.52644 4.9984C6.66404 5.3312 7.00164 6.1536 7.04164 6.2384C7.08324 6.3232 7.12324 6.4368 7.06564 6.5488C7.01124 6.664 6.96484 6.7136 6.88004 6.8128C6.79524 6.9104 6.71524 6.984 6.63044 7.088C6.55204 7.1792 6.46564 7.2768 6.56324 7.4464C6.66084 7.6112 6.99844 8.1616 7.49444 8.6016C8.13444 9.1712 8.65444 9.3536 8.84004 9.432C8.97764 9.4896 9.14404 9.4752 9.24484 9.368C9.37284 9.2288 9.53124 9 9.69284 8.7744C9.80804 8.6128 9.95204 8.592 10.104 8.6496C10.2592 8.7024 11.0784 9.1088 11.248 9.192C11.416 9.2768 11.528 9.3168 11.568 9.3872C11.6064 9.4576 11.6064 9.792 11.4672 10.1824Z" fill="#C9C7C7"/>
</g>
<defs>
<clipPath id="clip0_1389_469">
<rect width="16" height="16" fill="white"/>
</clipPath>
</defs>
</svg>
