<svg width="16" height="16" viewBox="0 0 16 16" fill="none" xmlns="http://www.w3.org/2000/svg">
<path d="M8 1C4.1344 1 1 4.1344 1 8C1 11.8656 4.1344 15 8 15C11.8656 15 15 11.8656 15 8C15 4.1344 11.8656 1 8 1ZM10.1552 11.3296C10.1552 11.3296 9.9808 11.7664 9.4992 11.5568L7.7152 10.1888L6.6192 9.3312L6.624 9.2912C6.624 9.2912 9.824 6.4144 9.9552 6.2928L10.0432 6.144C10.0512 5.9952 9.8064 6.144 9.8064 6.144L5.5664 8.8368L3.8 8.2416C3.8 8.2416 3.528 8.1456 3.5024 7.936C3.4768 7.7264 3.808 7.6128 3.808 7.6128L10.8288 4.8592C10.8288 4.8592 11.4064 4.6064 11.4064 5.0256L10.1552 11.3296Z" fill="#C9C7C7"/>
</svg>
