<svg width="16" height="16" viewBox="0 0 16 16" fill="none" xmlns="http://www.w3.org/2000/svg">
<path d="M14.9599 2.97443C14.9231 2.75523 14.8479 2.53603 14.7343 2.30883C14.3791 1.59523 13.6671 1.10083 12.8687 1.01443C12.6863 0.995231 3.28312 0.99683 3.10552 1.01763C2.83512 1.04803 2.52952 1.14563 2.26072 1.28483C1.63032 1.61443 1.16152 2.26243 1.03832 2.97443C1.01112 3.12483 1.00952 3.32963 1.00952 8.03363V12.9344L1.04472 13.0864C1.26072 14.0608 1.94872 14.7488 2.92312 14.9648L3.07512 15H12.9247L13.0767 14.9648C14.0511 14.7488 14.7391 14.0608 14.9551 13.0864L14.9903 12.9344V8.03363C14.9871 3.32963 14.9871 3.12483 14.9599 2.97443ZM7.67192 3.53923C7.74232 3.47523 7.79192 3.46563 8.03512 3.47363C8.16312 3.47843 8.34872 3.49283 8.45112 3.50563C8.96632 3.56963 9.38232 3.69443 9.83832 3.91683C10.2879 4.13763 10.5743 4.34563 10.9551 4.72323C11.3119 5.08163 11.5087 5.35203 11.7183 5.77283C12.0095 6.36003 12.1759 7.05763 12.2047 7.82403C12.2159 8.08643 12.2079 8.14403 12.1471 8.21923C12.0335 8.36483 11.7839 8.34083 11.6975 8.17763C11.6703 8.12323 11.6623 8.07683 11.6543 7.86723C11.6399 7.54563 11.6175 7.33763 11.5727 7.08963C11.3967 6.11523 10.9295 5.33763 10.1839 4.77923C9.56312 4.31203 8.92152 4.08483 8.07992 4.03523C7.79512 4.01923 7.74552 4.00803 7.68152 3.95843C7.56312 3.86403 7.55672 3.64323 7.67192 3.53923ZM9.45592 5.46723C9.15512 5.28803 8.71032 5.15523 8.30552 5.12163C8.15832 5.11043 8.07832 5.08003 8.02232 5.01603C7.93752 4.91843 7.92792 4.78723 7.99992 4.67843C8.07832 4.55683 8.19672 4.53763 8.55512 4.59203C9.46392 4.72483 10.1663 5.14723 10.6287 5.83203C10.8879 6.21763 11.0495 6.67203 11.1039 7.15843C11.1231 7.33603 11.1231 7.66083 11.1023 7.71523C11.0831 7.76643 11.0207 7.83523 10.9663 7.86403C10.9087 7.89443 10.7839 7.89123 10.7151 7.85443C10.5999 7.79683 10.5647 7.70403 10.5647 7.45123C10.5647 7.06403 10.4639 6.65443 10.2911 6.33763C10.0943 5.97443 9.80632 5.67523 9.45592 5.46723ZM9.96152 7.46243C9.87352 7.54403 9.71032 7.54563 9.61112 7.47043C9.53912 7.41603 9.51672 7.36003 9.50072 7.20483C9.48152 7.00003 9.44472 6.85603 9.38392 6.72323C9.25272 6.44003 9.02072 6.29443 8.62872 6.24643C8.44472 6.22403 8.38872 6.20323 8.32952 6.13283C8.22072 6.00323 8.26232 5.79203 8.41272 5.71363C8.47032 5.68483 8.49432 5.68163 8.61912 5.68963C8.69752 5.69443 8.81272 5.70723 8.87352 5.72163C9.16792 5.78403 9.39512 5.89603 9.58712 6.07843C9.83512 6.31363 9.97112 6.59843 10.0319 7.00643C10.0735 7.27043 10.0559 7.37603 9.96152 7.46243ZM12.1983 11.3936C12.0879 11.68 11.6559 12.216 11.3551 12.4448C11.0831 12.6512 10.8895 12.7312 10.6351 12.7424C10.4255 12.7536 10.3391 12.7344 10.0703 12.624C7.96952 11.7568 6.29112 10.464 4.95992 8.68803C4.26392 7.76003 3.73432 6.79843 3.37272 5.80003C3.16152 5.21763 3.15192 4.96483 3.32472 4.66723C3.39992 4.54083 3.71832 4.23043 3.95032 4.05603C4.33592 3.76803 4.51512 3.66243 4.65752 3.63203C4.75512 3.61123 4.92312 3.62723 5.03192 3.66723C5.08472 3.68483 5.16472 3.72643 5.21112 3.75683C5.49592 3.94563 6.28792 4.95843 6.54552 5.46403C6.69432 5.75363 6.74232 5.96643 6.69592 6.12483C6.64792 6.29603 6.56792 6.38563 6.21432 6.67043C6.07192 6.78563 5.93912 6.90403 5.91832 6.93603C5.86392 7.01443 5.82072 7.16643 5.82072 7.27363C5.82232 7.52323 5.98392 7.97763 6.19672 8.32643C6.36152 8.59683 6.65592 8.94403 6.94872 9.21123C7.29112 9.52483 7.59352 9.73923 7.93432 9.90883C8.37272 10.128 8.64152 10.1824 8.83672 10.0912C8.88632 10.0688 8.93912 10.0384 8.95512 10.0256C8.96952 10.0128 9.08472 9.87203 9.21112 9.71523C9.45432 9.40963 9.50872 9.36003 9.67512 9.30403C9.88632 9.23203 10.1023 9.25123 10.3183 9.36163C10.4831 9.44643 10.8415 9.67043 11.0735 9.83203C11.3791 10.0464 12.0319 10.5792 12.1199 10.6848C12.2767 10.8784 12.3023 11.1232 12.1983 11.3936Z" fill="#C9C7C7"/>
</svg>
